<?xml version="1.0" standalone="no"?>
<!DOCTYPE svg PUBLIC "-//W3C//DTD SVG 20010904//EN"
 "http://www.w3.org/TR/2001/REC-SVG-20010904/DTD/svg10.dtd">
<svg version="1.0" xmlns="http://www.w3.org/2000/svg"
 width="316.000000pt" height="315.000000pt" viewBox="0 0 316.000000 315.000000"
 preserveAspectRatio="xMidYMid meet">
<metadata>
Created by potrace 1.16, written by Peter Selinger 2001-2019
</metadata>
<g transform="translate(0.000000,315.000000) scale(0.100000,-0.100000)"
fill="#000000" stroke="none">
<path d="M2080 3067 c-397 -296 -597 -678 -577 -1102 8 -162 65 -447 81 -405
23 61 79 409 74 460 -3 30 -8 21 -37 -70 -18 -58 -35 -112 -38 -120 -13 -32
-24 101 -20 220 10 232 86 436 244 648 63 84 169 199 226 245 l40 31 -6 -44
c-10 -74 11 -208 49 -315 20 -55 53 -149 75 -210 47 -132 51 -211 18 -302 -50
-136 -207 -298 -457 -472 l-33 -23 6 89 c16 276 26 495 22 499 -9 9 -97 -620
-97 -694 0 -20 3 -22 14 -13 11 9 26 -26 85 -201 70 -204 181 -497 200 -528
22 -33 19 2 -9 111 -16 62 -54 197 -86 299 -31 102 -59 193 -61 202 -5 17 -1
16 50 -1 164 -57 351 -150 439 -221 141 -112 186 -229 164 -426 -5 -49 -10
-165 -10 -259 0 -147 2 -178 21 -232 11 -35 19 -63 17 -63 -9 0 -108 53 -172
92 -163 99 -335 259 -427 397 -84 127 -153 306 -170 441 l-6 55 70 -116 c74
-121 104 -160 94 -117 -14 57 -190 433 -223 478 -19 26 -5 -250 19 -367 68
-330 240 -587 516 -772 119 -80 175 -110 315 -169 154 -64 146 -66 100 26 -80
162 -84 187 -85 537 0 298 -1 312 -22 358 -87 187 -269 300 -783 483 -12 5
-10 10 10 22 268 180 468 363 532 487 75 145 73 224 -12 476 -27 80 -57 179
-65 220 -20 92 -21 280 -1 369 7 36 13 66 12 66 0 1 -44 -30 -96 -69z"/>
<path d="M1010 2675 c0 -3 9 -33 21 -67 18 -55 20 -81 17 -238 l-3 -176 31
-50 30 -49 -125 62 c-217 107 -444 151 -721 139 -80 -3 -157 -9 -173 -13 -27
-8 -26 -9 43 -61 84 -65 148 -134 207 -225 40 -61 71 -127 158 -341 62 -150
163 -238 314 -273 133 -31 389 -23 674 19 l78 12 -98 99 c-172 173 -448 415
-461 403 -8 -9 64 -91 241 -272 93 -96 168 -177 165 -179 -14 -14 -184 -29
-333 -29 -236 -1 -339 29 -437 125 -55 55 -77 96 -152 286 -67 170 -108 243
-182 323 l-56 60 103 0 c247 0 499 -67 698 -186 98 -58 220 -168 290 -262 28
-36 48 -68 47 -70 -2 -2 -33 15 -69 37 -84 51 -148 84 -153 78 -8 -7 80 -81
228 -192 194 -147 189 -146 122 -13 -71 142 -118 211 -208 306 l-71 75 65 -52
c67 -54 118 -86 126 -78 3 2 -5 39 -17 82 -11 42 -19 79 -16 81 2 2 16 -25 32
-61 15 -36 31 -68 36 -70 14 -9 9 246 -6 313 -30 127 -98 229 -217 324 -63 50
-228 147 -228 133z m184 -184 c28 -21 70 -63 93 -92 42 -54 99 -166 90 -175
-2 -2 -21 25 -42 61 -44 75 -71 87 -61 28 4 -21 20 -91 37 -155 16 -65 29
-120 29 -124 0 -15 -131 67 -172 107 -61 60 -66 92 -43 230 10 59 15 119 13
133 -3 14 -3 26 0 26 3 0 28 -17 56 -39z"/>
<path d="M2301 1899 c-46 -23 -95 -62 -166 -133 -94 -93 -235 -260 -235 -278
0 -5 71 -9 158 -9 133 -2 146 -3 82 -9 -148 -14 -200 -22 -200 -30 0 -9 109
-44 210 -66 111 -25 311 -23 414 5 152 41 306 141 455 296 133 139 135 130
-32 130 -157 0 -201 10 -372 81 -72 30 -106 38 -170 42 -74 3 -84 1 -144 -29z
m216 -41 c26 -6 76 -26 112 -43 100 -49 207 -85 272 -92 33 -3 59 -9 59 -12 0
-10 -102 -95 -166 -139 -150 -102 -305 -152 -472 -152 -58 0 -103 2 -100 5 2
3 44 12 92 21 48 9 93 22 100 29 6 7 45 16 84 20 40 4 74 11 77 15 9 14 -65
22 -307 34 l-236 11 71 81 c118 133 194 192 282 220 51 16 76 17 132 2z"/>
</g>
</svg>
